<svg class="border shadow-md dark:border-slate-700" viewBox="0 0 742.72 742.72" style="width: 742.72px; height: 742.72px;" xmlns="http://www.w3.org/2000/svg" preserveAspectRatio="none"><rect class="bg" id="bg" x="0" y="0" width="742.72" height="742.72" fill="#"/><line opacity="0.8" x1="0" y1="60" x2="109" y2="169" stroke-linecap="round" stroke="#121212" stroke-width="16"/><line opacity="0.8" x1="0" y1="334.0488888888889" x2="103.5" y2="437.5488888888889" stroke-linecap="round" stroke="#F18701" stroke-width="34"/><line opacity="0.8" x1="0" y1="644.5488888888889" x2="199" y2="843.5488888888889" stroke-linecap="round" stroke="#121212" stroke-width="32"/><line opacity="0.8" x1="29.7088" y1="24" x2="123.7088" y2="118" stroke-linecap="round" stroke="#F7B801" stroke-width="16"/><line opacity="0.8" x1="29.7088" y1="243" x2="104.7088" y2="318" stroke-linecap="round" stroke="#121212" stroke-width="28"/><line opacity="0.8" x1="29.7088" y1="417.02933333333334" x2="121.7088" y2="509.02933333333334" stroke-linecap="round" stroke="#F7B801" stroke-width="16"/><line opacity="0.8" x1="29.7088" y1="608.0586666666667" x2="79.22346666666667" y2="657.5733333333334" stroke-linecap="round" stroke="#121212" stroke-width="39"/><line opacity="0.8" x1="29.7088" y1="756.6026666666667" x2="109.7088" y2="836.6026666666667" stroke-linecap="round" stroke="#F18701" stroke-width="16"/><line opacity="0.8" x1="59.4176" y1="51" x2="110.9176" y2="102.5" stroke-linecap="round" stroke="#121212" stroke-width="16"/><line opacity="0.8" x1="59.4176" y1="205.5" x2="100.67982222222221" y2="246.76222222222222" stroke-linecap="round" stroke="#121212" stroke-width="16"/><line opacity="0.8" x1="59.4176" y1="329.28666666666663" x2="111.9176" y2="381.78666666666663" stroke-linecap="round" stroke="#F7B801" stroke-width="30"/><line opacity="0.8" x1="59.4176" y1="486.78666666666663" x2="100.67982222222221" y2="528.0488888888889" stroke-linecap="round" stroke="#F18701" stroke-width="16"/><line opacity="0.8" x1="59.4176" y1="610.5733333333333" x2="156.4176" y2="707.5733333333333" stroke-linecap="round" stroke="#F18701" stroke-width="17"/><line opacity="0.8" x1="59.4176" y1="830.5733333333333" x2="101.4176" y2="872.5733333333333" stroke-linecap="round" stroke="#121212" stroke-width="16"/><line opacity="0.8" x1="89.1264" y1="-62" x2="138.6410666666667" y2="-12.48533333333333" stroke-linecap="round" stroke="#121212" stroke-width="32"/><line opacity="0.8" x1="89.1264" y1="86.54400000000001" x2="138.6410666666667" y2="136.05866666666668" stroke-linecap="round" stroke="#F18701" stroke-width="34"/><line opacity="0.8" x1="89.1264" y1="235.08800000000002" x2="138.6410666666667" y2="284.60266666666666" stroke-linecap="round" stroke="#121212" stroke-width="16"/><line opacity="0.8" x1="89.1264" y1="383.63200000000006" x2="175.1264" y2="469.63200000000006" stroke-linecap="round" stroke="#121212" stroke-width="16"/><line opacity="0.8" x1="89.1264" y1="573.6320000000001" x2="138.6410666666667" y2="623.1466666666668" stroke-linecap="round" stroke="#F7B801" stroke-width="32"/><line opacity="0.8" x1="118.8352" y1="16" x2="168.34986666666668" y2="65.51466666666667" stroke-linecap="round" stroke="#121212" stroke-width="16"/><line opacity="0.8" x1="118.8352" y1="164.544" x2="169.3352" y2="215.044" stroke-linecap="round" stroke="#121212" stroke-width="25"/><line opacity="0.8" x1="118.8352" y1="316.044" x2="211.8352" y2="409.044" stroke-linecap="round" stroke="#121212" stroke-width="28"/><line opacity="0.8" x1="118.8352" y1="508.0733333333333" x2="168.34986666666668" y2="557.588" stroke-linecap="round" stroke="#121212" stroke-width="22"/><line opacity="0.8" x1="118.8352" y1="656.6173333333334" x2="168.34986666666668" y2="706.1320000000001" stroke-linecap="round" stroke="#121212" stroke-width="16"/><line opacity="0.8" x1="148.544" y1="101" x2="231.06844444444445" y2="183.52444444444444" stroke-linecap="round" stroke="#F18701" stroke-width="20"/><line opacity="0.8" x1="148.544" y1="348.5733333333333" x2="287.544" y2="487.5733333333333" stroke-linecap="round" stroke="#121212" stroke-width="21"/><line opacity="0.8" x1="148.544" y1="652.6222222222223" x2="270.544" y2="774.6222222222223" stroke-linecap="round" stroke="#F18701" stroke-width="18"/><line opacity="0.8" x1="178.2528" y1="37" x2="260.7772444444445" y2="119.52444444444444" stroke-linecap="round" stroke="#F18701" stroke-width="29"/><line opacity="0.8" x1="178.2528" y1="284.5733333333333" x2="260.7772444444445" y2="367.09777777777776" stroke-linecap="round" stroke="#F7B801" stroke-width="26"/><line opacity="0.8" x1="178.2528" y1="532.1466666666666" x2="261.2528" y2="615.1466666666666" stroke-linecap="round" stroke="#F7B801" stroke-width="16"/><line opacity="0.8" x1="207.9616" y1="105" x2="304.9616" y2="202" stroke-linecap="round" stroke="#F7B801" stroke-width="16"/><line opacity="0.8" x1="207.9616" y1="301.02933333333334" x2="283.9616" y2="377.02933333333334" stroke-linecap="round" stroke="#121212" stroke-width="38"/><line opacity="0.8" x1="207.9616" y1="476.0586666666667" x2="281.4616" y2="549.5586666666667" stroke-linecap="round" stroke="#F7B801" stroke-width="37"/><line opacity="0.8" x1="207.9616" y1="696.5586666666667" x2="257.4762666666667" y2="746.0733333333334" stroke-linecap="round" stroke="#121212" stroke-width="23"/><line opacity="0.8" x1="207.9616" y1="845.1026666666667" x2="257.4762666666667" y2="894.6173333333334" stroke-linecap="round" stroke="#F7B801" stroke-width="16"/><line opacity="0.8" x1="237.6704" y1="92" x2="319.6704" y2="174" stroke-linecap="round" stroke="#121212" stroke-width="28"/><line opacity="0.8" x1="237.6704" y1="273.02933333333334" x2="306.6704" y2="342.02933333333334" stroke-linecap="round" stroke="#121212" stroke-width="32"/><line opacity="0.8" x1="237.6704" y1="441.0586666666667" x2="287.18506666666667" y2="490.5733333333334" stroke-linecap="round" stroke="#F7B801" stroke-width="16"/><line opacity="0.8" x1="237.6704" y1="589.6026666666667" x2="291.6704" y2="643.6026666666667" stroke-linecap="round" stroke="#F18701" stroke-width="16"/><line opacity="0.8" x1="237.6704" y1="742.6320000000001" x2="287.18506666666667" y2="792.1466666666668" stroke-linecap="round" stroke="#F18701" stroke-width="21"/><line opacity="0.8" x1="267.3792" y1="57" x2="349.90364444444447" y2="139.52444444444444" stroke-linecap="round" stroke="#F7B801" stroke-width="16"/><line opacity="0.8" x1="267.3792" y1="304.5733333333333" x2="388.3792" y2="425.5733333333333" stroke-linecap="round" stroke="#F18701" stroke-width="17"/><line opacity="0.8" x1="267.3792" y1="590.6222222222223" x2="414.3792" y2="737.6222222222223" stroke-linecap="round" stroke="#121212" stroke-width="26"/><line opacity="0.8" x1="297.088" y1="109" x2="380.088" y2="192" stroke-linecap="round" stroke="#F7B801" stroke-width="16"/><line opacity="0.8" x1="297.088" y1="358" x2="379.61244444444446" y2="440.52444444444444" stroke-linecap="round" stroke="#F7B801" stroke-width="16"/><line opacity="0.8" x1="297.088" y1="605.5733333333333" x2="421.088" y2="729.5733333333333" stroke-linecap="round" stroke="#F18701" stroke-width="26"/><line opacity="0.8" x1="326.7968" y1="30" x2="392.7968" y2="96" stroke-linecap="round" stroke="#121212" stroke-width="33"/><line opacity="0.8" x1="326.7968" y1="178.52444444444444" x2="388.7968" y2="240.52444444444444" stroke-linecap="round" stroke="#121212" stroke-width="33"/><line opacity="0.8" x1="326.7968" y1="323.0488888888889" x2="371.7968" y2="368.0488888888889" stroke-linecap="round" stroke="#F18701" stroke-width="16"/><line opacity="0.8" x1="326.7968" y1="458.0488888888889" x2="368.0590222222222" y2="499.31111111111113" stroke-linecap="round" stroke="#121212" stroke-width="16"/><line opacity="0.8" x1="326.7968" y1="581.8355555555555" x2="386.7968" y2="641.8355555555555" stroke-linecap="round" stroke="#121212" stroke-width="16"/><line opacity="0.8" x1="326.7968" y1="724.3599999999999" x2="374.7968" y2="772.3599999999999" stroke-linecap="round" stroke="#121212" stroke-width="16"/><line opacity="0.8" x1="356.5056" y1="-68" x2="478.5056" y2="54" stroke-linecap="round" stroke="#121212" stroke-width="32"/><line opacity="0.8" x1="356.5056" y1="298" x2="439.03004444444446" y2="380.52444444444444" stroke-linecap="round" stroke="#121212" stroke-width="39"/><line opacity="0.8" x1="356.5056" y1="545.5733333333333" x2="500.5056" y2="689.5733333333333" stroke-linecap="round" stroke="#F7B801" stroke-width="38"/><line opacity="0.8" x1="386.2144" y1="-97" x2="514.2144000000001" y2="31" stroke-linecap="round" stroke="#121212" stroke-width="16"/><line opacity="0.8" x1="386.2144" y1="183" x2="506.2144" y2="303" stroke-linecap="round" stroke="#121212" stroke-width="16"/><line opacity="0.8" x1="386.2144" y1="426.7866666666667" x2="494.2144" y2="534.7866666666666" stroke-linecap="round" stroke="#121212" stroke-width="16"/><line opacity="0.8" x1="386.2144" y1="658.5733333333334" x2="448.10773333333333" y2="720.4666666666667" stroke-linecap="round" stroke="#121212" stroke-width="20"/><line opacity="0.8" x1="415.9232" y1="98" x2="502.9232" y2="185" stroke-linecap="round" stroke="#F7B801" stroke-width="16"/><line opacity="0.8" x1="415.9232" y1="350.0488888888889" x2="590.9232" y2="525.0488888888889" stroke-linecap="round" stroke="#121212" stroke-width="16"/><line opacity="0.8" x1="415.9232" y1="744.0488888888889" x2="498.44764444444445" y2="826.5733333333333" stroke-linecap="round" stroke="#F7B801" stroke-width="35"/><line opacity="0.8" x1="445.632" y1="51" x2="507.5253333333333" y2="112.89333333333335" stroke-linecap="round" stroke="#121212" stroke-width="16"/><line opacity="0.8" x1="445.632" y1="236.68" x2="534.1320000000001" y2="325.18" stroke-linecap="round" stroke="#F18701" stroke-width="18"/><line opacity="0.8" x1="445.632" y1="502.18" x2="524.6320000000001" y2="581.1800000000001" stroke-linecap="round" stroke="#121212" stroke-width="16"/><line opacity="0.8" x1="445.632" y1="704.9666666666667" x2="557.6320000000001" y2="816.9666666666667" stroke-linecap="round" stroke="#F18701" stroke-width="24"/><line opacity="0.8" x1="475.3408" y1="34" x2="582.8408" y2="141.5" stroke-linecap="round" stroke="#121212" stroke-width="16"/><line opacity="0.8" x1="475.3408" y1="356.5" x2="596.3408" y2="477.5" stroke-linecap="round" stroke="#F18701" stroke-width="33"/><line opacity="0.8" x1="475.3408" y1="642.5488888888889" x2="618.3408" y2="785.5488888888889" stroke-linecap="round" stroke="#F7B801" stroke-width="20"/><line opacity="0.8" x1="505.0496" y1="16" x2="558.0496" y2="69" stroke-linecap="round" stroke="#F7B801" stroke-width="24"/><line opacity="0.8" x1="505.0496" y1="175" x2="556.0496" y2="226" stroke-linecap="round" stroke="#121212" stroke-width="16"/><line opacity="0.8" x1="505.0496" y1="325.02933333333334" x2="554.5642666666666" y2="374.544" stroke-linecap="round" stroke="#121212" stroke-width="16"/><line opacity="0.8" x1="505.0496" y1="473.5733333333334" x2="582.0496" y2="550.5733333333334" stroke-linecap="round" stroke="#121212" stroke-width="16"/><line opacity="0.8" x1="505.0496" y1="649.6026666666667" x2="594.0496" y2="738.6026666666667" stroke-linecap="round" stroke="#121212" stroke-width="16"/><line opacity="0.8" x1="534.7584" y1="123" x2="581.2584" y2="169.5" stroke-linecap="round" stroke="#F7B801" stroke-width="23"/><line opacity="0.8" x1="534.7584" y1="262.5" x2="570.1260190476191" y2="297.86761904761903" stroke-linecap="round" stroke="#121212" stroke-width="16"/><line opacity="0.8" x1="534.7584" y1="368.60285714285715" x2="570.1260190476191" y2="403.9704761904762" stroke-linecap="round" stroke="#121212" stroke-width="32"/><line opacity="0.8" x1="534.7584" y1="474.7057142857143" x2="620.7584" y2="560.7057142857143" stroke-linecap="round" stroke="#F18701" stroke-width="28"/><line opacity="0.8" x1="534.7584" y1="653.7057142857143" x2="572.7584" y2="691.7057142857143" stroke-linecap="round" stroke="#121212" stroke-width="34"/><line opacity="0.8" x1="534.7584" y1="762.4409523809524" x2="587.7584" y2="815.4409523809524" stroke-linecap="round" stroke="#121212" stroke-width="37"/><line opacity="0.8" x1="534.7584" y1="889.4409523809524" x2="570.1260190476191" y2="924.8085714285714" stroke-linecap="round" stroke="#F7B801" stroke-width="33"/><line opacity="0.8" x1="564.4672" y1="85" x2="626.3605333333334" y2="146.89333333333335" stroke-linecap="round" stroke="#121212" stroke-width="26"/><line opacity="0.8" x1="564.4672" y1="270.68" x2="636.4672" y2="342.68" stroke-linecap="round" stroke="#121212" stroke-width="16"/><line opacity="0.8" x1="564.4672" y1="486.68" x2="626.3605333333334" y2="548.5733333333334" stroke-linecap="round" stroke="#121212" stroke-width="24"/><line opacity="0.8" x1="564.4672" y1="672.36" x2="659.4672" y2="767.36" stroke-linecap="round" stroke="#121212" stroke-width="16"/><line opacity="0.8" x1="594.176" y1="-16" x2="676.7004444444444" y2="66.52444444444444" stroke-linecap="round" stroke="#F18701" stroke-width="16"/><line opacity="0.8" x1="594.176" y1="231.57333333333332" x2="676.7004444444444" y2="314.09777777777776" stroke-linecap="round" stroke="#121212" stroke-width="16"/><line opacity="0.8" x1="594.176" y1="479.14666666666665" x2="714.676" y2="599.6466666666666" stroke-linecap="round" stroke="#121212" stroke-width="16"/><line opacity="0.8" x1="623.8848" y1="58" x2="668.8848" y2="103" stroke-linecap="round" stroke="#121212" stroke-width="35"/><line opacity="0.8" x1="623.8848" y1="175" x2="693.8848" y2="245" stroke-linecap="round" stroke="#121212" stroke-width="16"/><line opacity="0.8" x1="623.8848" y1="315.7352380952381" x2="659.2524190476191" y2="351.10285714285715" stroke-linecap="round" stroke="#F18701" stroke-width="31"/><line opacity="0.8" x1="623.8848" y1="421.83809523809526" x2="669.3848" y2="467.33809523809526" stroke-linecap="round" stroke="#121212" stroke-width="25"/><line opacity="0.8" x1="623.8848" y1="558.3380952380953" x2="659.2524190476191" y2="593.7057142857144" stroke-linecap="round" stroke="#121212" stroke-width="30"/><line opacity="0.8" x1="623.8848" y1="664.4409523809525" x2="666.3848" y2="706.9409523809525" stroke-linecap="round" stroke="#F18701" stroke-width="26"/><line opacity="0.8" x1="623.8848" y1="791.9409523809525" x2="659.2524190476191" y2="827.3085714285716" stroke-linecap="round" stroke="#121212" stroke-width="16"/><line opacity="0.8" x1="653.5936" y1="-34" x2="736.1180444444444" y2="48.52444444444444" stroke-linecap="round" stroke="#121212" stroke-width="16"/><line opacity="0.8" x1="653.5936" y1="213.57333333333332" x2="788.5936" y2="348.5733333333333" stroke-linecap="round" stroke="#F7B801" stroke-width="16"/><line opacity="0.8" x1="653.5936" y1="513.6222222222223" x2="736.1180444444444" y2="596.1466666666668" stroke-linecap="round" stroke="#F7B801" stroke-width="23"/><line opacity="0.8" x1="683.3024" y1="31" x2="895.3024" y2="243" stroke-linecap="round" stroke="#F18701" stroke-width="16"/><line opacity="0.8" x1="683.3024" y1="477" x2="806.3024" y2="600" stroke-linecap="round" stroke="#121212" stroke-width="16"/><line opacity="0.8" x1="683.3024" y1="846" x2="765.8268444444445" y2="928.5244444444445" stroke-linecap="round" stroke="#121212" stroke-width="16"/><line opacity="0.8" x1="713.0112" y1="16" x2="795.5356444444444" y2="98.52444444444444" stroke-linecap="round" stroke="#121212" stroke-width="31"/><line opacity="0.8" x1="713.0112" y1="263.5733333333333" x2="810.0112" y2="360.5733333333333" stroke-linecap="round" stroke="#121212" stroke-width="16"/><line opacity="0.8" x1="713.0112" y1="525.6222222222223" x2="860.0112" y2="672.6222222222223" stroke-linecap="round" stroke="#121212" stroke-width="18"/></svg>