<svg class="border shadow-md dark:border-slate-700" viewBox="0 0 742.72 742.72" style="width: 742.72px; height: 742.72px;" xmlns="http://www.w3.org/2000/svg" preserveAspectRatio="none"><rect class="bg" id="bg" x="0" y="0" width="742.72" height="742.72" fill="#ffffff"/><g><path d="M 0 -51.42V -30.852 H 37.136 V -20.568000000000005 H 74.272 V -82.27199999999999 H 111.40800000000002 V -30.852 H 148.544 V -61.704 H 185.68 V -30.852 H 222.81600000000003 V -30.852 H 259.952 V -82.27199999999999 H 297.088 V -51.42 H 334.22400000000005 V -20.568000000000005 H 371.36 V -20.568000000000005 H 408.49600000000004 V -61.704 H 445.63200000000006 V -82.27199999999999 H 482.76800000000003 V -30.852 H 519.904 V -41.136 H 557.0400000000001 V -20.568000000000005 H 594.176 V -30.852 H 631.312 V -51.42 H 668.4480000000001 V -20.568000000000005 H 705.5840000000001 V -30.852 H 742.72 V 743.72 H 0 V -51.42 Z" fill="#DB4900"/></g><g><path d="M 0 0V 20.568 H 37.136 V -30.851999999999997 H 74.272 V 0 H 111.40800000000002 V -20.568 H 148.544 V 20.568 H 185.68 V -10.284 H 222.81600000000003 V 10.284 H 259.952 V 0 H 297.088 V 20.568 H 334.22400000000005 V 10.284 H 371.36 V -10.284 H 408.49600000000004 V 10.284 H 445.63200000000006 V 30.851999999999997 H 482.76800000000003 V 0 H 519.904 V 20.568 H 557.0400000000001 V 0 H 594.176 V -10.284 H 631.312 V -20.568 H 668.4480000000001 V 0 H 705.5840000000001 V -20.568 H 742.72 V 743.72 H 0 V 0 Z" fill="#cf4500"/></g><g><path d="M 0 51.42V 51.42 H 37.136 V 61.704 H 74.272 V 41.136 H 111.40800000000002 V 41.136 H 148.544 V 71.988 H 185.68 V 51.42 H 222.81600000000003 V 51.42 H 259.952 V 82.27199999999999 H 297.088 V 41.136 H 334.22400000000005 V 82.27199999999999 H 371.36 V 71.988 H 408.49600000000004 V 51.42 H 445.63200000000006 V 82.27199999999999 H 482.76800000000003 V 82.27199999999999 H 519.904 V 61.704 H 557.0400000000001 V 30.852 H 594.176 V 61.704 H 631.312 V 20.568000000000005 H 668.4480000000001 V 82.27199999999999 H 705.5840000000001 V 82.27199999999999 H 742.72 V 743.72 H 0 V 51.42 Z" fill="#c34100"/></g><g><path d="M 0 102.84V 82.272 H 37.136 V 102.84 H 74.272 V 113.12400000000001 H 111.40800000000002 V 102.84 H 148.544 V 133.692 H 185.68 V 133.692 H 222.81600000000003 V 102.84 H 259.952 V 123.408 H 297.088 V 123.408 H 334.22400000000005 V 123.408 H 371.36 V 82.272 H 408.49600000000004 V 82.272 H 445.63200000000006 V 102.84 H 482.76800000000003 V 113.12400000000001 H 519.904 V 133.692 H 557.0400000000001 V 123.408 H 594.176 V 102.84 H 631.312 V 102.84 H 668.4480000000001 V 102.84 H 705.5840000000001 V 92.556 H 742.72 V 743.72 H 0 V 102.84 Z" fill="#b73d00"/></g><g><path d="M 0 154.26V 154.26 H 37.136 V 154.26 H 74.272 V 185.112 H 111.40800000000002 V 154.26 H 148.544 V 164.54399999999998 H 185.68 V 164.54399999999998 H 222.81600000000003 V 174.828 H 259.952 V 133.69199999999998 H 297.088 V 185.112 H 334.22400000000005 V 133.69199999999998 H 371.36 V 133.69199999999998 H 408.49600000000004 V 174.828 H 445.63200000000006 V 185.112 H 482.76800000000003 V 154.26 H 519.904 V 133.69199999999998 H 557.0400000000001 V 185.112 H 594.176 V 133.69199999999998 H 631.312 V 154.26 H 668.4480000000001 V 154.26 H 705.5840000000001 V 133.69199999999998 H 742.72 V 743.72 H 0 V 154.26 Z" fill="#ab3900"/></g><g><path d="M 0 205.68V 185.112 H 37.136 V 185.112 H 74.272 V 236.532 H 111.40800000000002 V 236.532 H 148.544 V 226.24800000000002 H 185.68 V 205.68 H 222.81600000000003 V 205.68 H 259.952 V 215.964 H 297.088 V 205.68 H 334.22400000000005 V 205.68 H 371.36 V 195.39600000000002 H 408.49600000000004 V 215.964 H 445.63200000000006 V 236.532 H 482.76800000000003 V 195.39600000000002 H 519.904 V 215.964 H 557.0400000000001 V 205.68 H 594.176 V 215.964 H 631.312 V 195.39600000000002 H 668.4480000000001 V 205.68 H 705.5840000000001 V 205.68 H 742.72 V 743.72 H 0 V 205.68 Z" fill="#9f3500"/></g><g><path d="M 0 257.1V 246.81600000000003 H 37.136 V 287.952 H 74.272 V 267.384 H 111.40800000000002 V 257.1 H 148.544 V 287.952 H 185.68 V 287.952 H 222.81600000000003 V 277.668 H 259.952 V 246.81600000000003 H 297.088 V 246.81600000000003 H 334.22400000000005 V 257.1 H 371.36 V 267.384 H 408.49600000000004 V 257.1 H 445.63200000000006 V 246.81600000000003 H 482.76800000000003 V 226.24800000000002 H 519.904 V 257.1 H 557.0400000000001 V 257.1 H 594.176 V 257.1 H 631.312 V 257.1 H 668.4480000000001 V 257.1 H 705.5840000000001 V 277.668 H 742.72 V 743.72 H 0 V 257.1 Z" fill="#933100"/></g><g><path d="M 0 308.52V 339.37199999999996 H 37.136 V 318.804 H 74.272 V 308.52 H 111.40800000000002 V 287.952 H 148.544 V 329.08799999999997 H 185.68 V 318.804 H 222.81600000000003 V 308.52 H 259.952 V 318.804 H 297.088 V 318.804 H 334.22400000000005 V 339.37199999999996 H 371.36 V 308.52 H 408.49600000000004 V 277.668 H 445.63200000000006 V 308.52 H 482.76800000000003 V 339.37199999999996 H 519.904 V 277.668 H 557.0400000000001 V 339.37199999999996 H 594.176 V 308.52 H 631.312 V 329.08799999999997 H 668.4480000000001 V 308.52 H 705.5840000000001 V 287.952 H 742.72 V 743.72 H 0 V 308.52 Z" fill="#872d00"/></g><g><path d="M 0 359.94V 339.372 H 37.136 V 359.94 H 74.272 V 339.372 H 111.40800000000002 V 380.508 H 148.544 V 370.224 H 185.68 V 380.508 H 222.81600000000003 V 339.372 H 259.952 V 380.508 H 297.088 V 339.372 H 334.22400000000005 V 370.224 H 371.36 V 359.94 H 408.49600000000004 V 370.224 H 445.63200000000006 V 329.088 H 482.76800000000003 V 370.224 H 519.904 V 359.94 H 557.0400000000001 V 390.792 H 594.176 V 390.792 H 631.312 V 370.224 H 668.4480000000001 V 380.508 H 705.5840000000001 V 390.792 H 742.72 V 743.72 H 0 V 359.94 Z" fill="#7b2900"/></g><g><path d="M 0 411.36V 442.212 H 37.136 V 421.644 H 74.272 V 411.36 H 111.40800000000002 V 442.212 H 148.544 V 421.644 H 185.68 V 411.36 H 222.81600000000003 V 411.36 H 259.952 V 411.36 H 297.088 V 442.212 H 334.22400000000005 V 411.36 H 371.36 V 390.79200000000003 H 408.49600000000004 V 380.50800000000004 H 445.63200000000006 V 421.644 H 482.76800000000003 V 380.50800000000004 H 519.904 V 442.212 H 557.0400000000001 V 442.212 H 594.176 V 380.50800000000004 H 631.312 V 411.36 H 668.4480000000001 V 380.50800000000004 H 705.5840000000001 V 411.36 H 742.72 V 743.72 H 0 V 411.36 Z" fill="#6f2500"/></g><g><path d="M 0 462.78000000000003V 483.348 H 37.136 V 493.632 H 74.272 V 462.78000000000003 H 111.40800000000002 V 483.348 H 148.544 V 483.348 H 185.68 V 473.064 H 222.81600000000003 V 442.21200000000005 H 259.952 V 431.92800000000005 H 297.088 V 431.92800000000005 H 334.22400000000005 V 483.348 H 371.36 V 462.78000000000003 H 408.49600000000004 V 462.78000000000003 H 445.63200000000006 V 462.78000000000003 H 482.76800000000003 V 442.21200000000005 H 519.904 V 493.632 H 557.0400000000001 V 483.348 H 594.176 V 442.21200000000005 H 631.312 V 483.348 H 668.4480000000001 V 442.21200000000005 H 705.5840000000001 V 473.064 H 742.72 V 743.72 H 0 V 462.78000000000003 Z" fill="#632100"/></g><g><path d="M 0 514.2V 534.768 H 37.136 V 514.2 H 74.272 V 545.052 H 111.40800000000002 V 524.484 H 148.544 V 534.768 H 185.68 V 503.91600000000005 H 222.81600000000003 V 503.91600000000005 H 259.952 V 524.484 H 297.088 V 534.768 H 334.22400000000005 V 545.052 H 371.36 V 545.052 H 408.49600000000004 V 534.768 H 445.63200000000006 V 483.34800000000007 H 482.76800000000003 V 524.484 H 519.904 V 534.768 H 557.0400000000001 V 483.34800000000007 H 594.176 V 514.2 H 631.312 V 514.2 H 668.4480000000001 V 524.484 H 705.5840000000001 V 483.34800000000007 H 742.72 V 743.72 H 0 V 514.2 Z" fill="#571d00"/></g><g><path d="M 0 565.62V 565.62 H 37.136 V 586.188 H 74.272 V 596.472 H 111.40800000000002 V 534.768 H 148.544 V 545.052 H 185.68 V 545.052 H 222.81600000000003 V 586.188 H 259.952 V 555.336 H 297.088 V 586.188 H 334.22400000000005 V 534.768 H 371.36 V 545.052 H 408.49600000000004 V 565.62 H 445.63200000000006 V 565.62 H 482.76800000000003 V 586.188 H 519.904 V 565.62 H 557.0400000000001 V 575.904 H 594.176 V 545.052 H 631.312 V 586.188 H 668.4480000000001 V 565.62 H 705.5840000000001 V 534.768 H 742.72 V 743.72 H 0 V 565.62 Z" fill="#4b1900"/></g><g><path d="M 0 617.04V 606.756 H 37.136 V 637.608 H 74.272 V 637.608 H 111.40800000000002 V 617.04 H 148.544 V 647.8919999999999 H 185.68 V 627.324 H 222.81600000000003 V 627.324 H 259.952 V 617.04 H 297.088 V 637.608 H 334.22400000000005 V 627.324 H 371.36 V 617.04 H 408.49600000000004 V 586.188 H 445.63200000000006 V 637.608 H 482.76800000000003 V 627.324 H 519.904 V 606.756 H 557.0400000000001 V 647.8919999999999 H 594.176 V 617.04 H 631.312 V 627.324 H 668.4480000000001 V 596.472 H 705.5840000000001 V 617.04 H 742.72 V 743.72 H 0 V 617.04 Z" fill="#3f1500"/></g><g><path d="M 0 668.46V 658.176 H 37.136 V 699.312 H 74.272 V 658.176 H 111.40800000000002 V 668.46 H 148.544 V 699.312 H 185.68 V 689.028 H 222.81600000000003 V 699.312 H 259.952 V 637.6080000000001 H 297.088 V 647.892 H 334.22400000000005 V 658.176 H 371.36 V 699.312 H 408.49600000000004 V 678.744 H 445.63200000000006 V 668.46 H 482.76800000000003 V 668.46 H 519.904 V 689.028 H 557.0400000000001 V 668.46 H 594.176 V 678.744 H 631.312 V 689.028 H 668.4480000000001 V 668.46 H 705.5840000000001 V 668.46 H 742.72 V 743.72 H 0 V 668.46 Z" fill="#331100"/></g><g><path d="M 0 719.88V 719.88 H 37.136 V 699.312 H 74.272 V 740.448 H 111.40800000000002 V 730.164 H 148.544 V 689.028 H 185.68 V 719.88 H 222.81600000000003 V 689.028 H 259.952 V 750.732 H 297.088 V 719.88 H 334.22400000000005 V 689.028 H 371.36 V 689.028 H 408.49600000000004 V 719.88 H 445.63200000000006 V 750.732 H 482.76800000000003 V 719.88 H 519.904 V 719.88 H 557.0400000000001 V 740.448 H 594.176 V 750.732 H 631.312 V 719.88 H 668.4480000000001 V 750.732 H 705.5840000000001 V 719.88 H 742.72 V 743.72 H 0 V 719.88 Z" fill="#270d00"/></g><g><path d="M 0 771.3000000000001V 781.5840000000001 H 37.136 V 761.0160000000001 H 74.272 V 802.152 H 111.40800000000002 V 771.3000000000001 H 148.544 V 771.3000000000001 H 185.68 V 781.5840000000001 H 222.81600000000003 V 802.152 H 259.952 V 761.0160000000001 H 297.088 V 771.3000000000001 H 334.22400000000005 V 740.4480000000001 H 371.36 V 791.868 H 408.49600000000004 V 802.152 H 445.63200000000006 V 802.152 H 482.76800000000003 V 791.868 H 519.904 V 781.5840000000001 H 557.0400000000001 V 771.3000000000001 H 594.176 V 791.868 H 631.312 V 802.152 H 668.4480000000001 V 791.868 H 705.5840000000001 V 761.0160000000001 H 742.72 V 743.72 H 0 V 771.3000000000001 Z" fill="#1b0900"/></g></svg>